<?xml version="1.0" encoding="utf-8" ?><svg xmlns="http://www.w3.org/2000/svg" xmlns:xlink="http://www.w3.org/1999/xlink" width="1024" height="1024" viewBox="0 0 1024 1024"><path fill="#2A446C" d="M583.292 93.6637C586.206 84.3472 603.851 29.9821 608.631 27.1492C610.381 26.112 612.697 26.0984 614.559 26.8228C617.313 27.8945 618.288 29.9018 619.31 32.5173C621.206 37.3667 622.67 42.3762 624.534 47.2391C630.827 63.6598 637.441 79.8591 643.473 96.3904C649.543 99.8177 658.252 101.828 664.911 104.311C678.624 109.424 692.381 114.435 706.312 118.928C710.913 120.423 719.7 123.045 716.642 129.64C716.323 130.328 715.175 131.479 714.42 131.786C693.319 140.373 671.364 146.869 649.894 154.481C647.109 155.468 644.26 156.413 641.509 157.472C639.724 162.635 637.786 167.78 636.62 173.106C646.182 173.41 657.196 172.927 666.901 172.855L722.848 172.689L775.813 172.644C786.916 172.696 800.88 173.094 811.805 172.624C814.313 159.194 817.809 146.474 820.994 133.228C822.446 127.191 825.905 116.481 826.13 110.752C817.066 99.1589 808.264 87.4785 799.497 75.6627C796.269 71.3126 789.289 63.3232 786.999 58.881C786.155 57.257 785.85 55.4063 786.129 53.5974C787.22 46.755 793.345 47.5636 798.423 48.6106C816.17 52.2702 840.134 64.0768 857.94 64.2687C872.429 53.6679 887.752 43.6399 902.324 33.0927C909.371 27.9919 916.922 21.4266 921.905 32.7C921.53 35.5131 920.977 38.0694 920.228 40.8135C915.163 59.3704 911.286 78.1905 906.824 96.8845C918.588 113.896 932.782 129.584 945.272 146.051C947.737 149.301 946.135 153.591 942.877 155.728C940.256 157.432 937.065 158.023 934.008 157.37C929.291 156.347 923.992 154.703 919.143 153.546C909.874 151.398 900.592 149.308 891.298 147.276C886.706 146.229 879.409 144.168 874.965 143.614C868.588 147.753 862.235 153.071 856.075 157.615C849.102 162.759 841.819 168.053 835.327 173.788C845.057 174.817 856.852 181.772 863.068 189.278C869.024 196.472 871.249 205.005 871.836 214.201C872.169 228.757 871.986 243.928 871.979 258.545L872.081 341.425L871.866 600.38L871.955 785.445L872.032 843.273C872.038 854.112 872.471 866.391 871.451 876.987C869.613 896.085 853.07 913.036 834.126 915.725C828.672 916.533 821.654 916.159 816.015 916.143L784.302 916.07C754.898 916.342 725.493 916.428 696.089 916.328C680.312 916.347 660.252 915.841 644.886 916.611C632.565 937.302 627.374 958.297 619.636 981.125C615.471 993.408 608.914 1011.75 605.699 1024L588.992 1024C590.826 1016.59 594.373 1006.38 596.779 998.799C601.644 983.278 606.688 967.814 611.911 952.409C616.243 939.728 619.798 923.266 627.462 912.669C611.214 907.039 593.932 899.766 577.12 893.842C573.2 904.514 570.011 915.216 566.478 925.998C560.478 943.814 554.567 961.662 548.748 979.539C544.023 994.045 539.243 1009.74 534.077 1024L517.56 1024C518.809 1018.53 523.073 1006.8 524.925 1000.95L545.192 938.64C547.079 932.727 551.232 921.987 552.222 916.43C537.904 916.091 522.802 916.292 508.401 916.244C475.33 916.098 442.259 916.132 409.188 916.345L227.567 916.437L138.029 916.397C125.099 916.335 111.968 916.639 99.2033 916.158C90.2149 915.819 80.8238 906.589 80.1479 897.851C79.4085 888.293 79.7553 877.398 79.7893 867.754L79.9498 809.145L79.7254 620.54L79.645 565.14C79.647 555.928 80.0398 544.264 79.4776 535.266C74.4273 536.593 68.4803 539.174 63.4946 540.923C54.55 544.061 45.8537 547.411 37.0935 551.037C26.2631 572.915 18.2896 596.973 7.30802 618.846C6.16823 621.116 2.21223 621.342 0 621.634L0 589.71C2.78167 589.329 6.17003 578.99 7.29844 576.256L18.2008 549.759C19.5397 546.528 20.9885 541.843 23.2102 539.175C28.4609 532.87 68.0076 521.873 78.7011 516.273L79.4626 515.868C69.4191 510.36 51.4158 504.796 40.3483 500.054C34.3985 497.505 29.96 496.467 23.9798 492.941C21.6182 488.855 19.67 483.635 17.7492 479.208C12.6149 467.374 7.39098 455.507 2.11854 443.734C1.3206 441.952 1.49392 442.324 0 441.838L0 410.392C2.51348 410.671 5.59927 410.985 7.07388 413.295C11.9063 420.867 15.3061 431.377 18.979 439.562C24.865 452.68 30.4801 466.737 36.3953 479.72C44.9351 483.438 54.3851 486.922 63.122 490.262C67.7673 492.038 75.1157 495.144 79.7114 496.529C80.2948 474.458 79.8072 450.552 79.8332 428.367L80.0116 288.057L80.2185 239.221C80.3604 217.678 78.0626 200.738 95.3517 184.948C102.536 178.386 110.096 174.634 119.983 173.584C134.159 172.228 149.777 172.646 164.115 172.663L242.132 172.833L479.625 172.941L553.466 173.059C563.786 173.072 578.624 173.551 588.669 173.063C587.365 167.577 585.973 162.779 583.435 157.704C569.078 151.926 554.579 146.505 539.953 141.446C530.688 138.183 521.183 135.093 512.189 131.237C509.304 130 508.169 125.425 509.344 122.668C510.655 119.591 514.713 118.666 517.572 117.451C532.179 112.399 546.736 107.254 561.269 101.976C569.378 99.0302 575.345 97.4161 583.292 93.6637ZM557.377 898.387C558.333 895.292 559.233 892.382 560.037 889.239C557.764 886.318 555.551 883.941 556.505 880.034C558.223 872.974 561.297 866.233 563.7 859.382C567.562 848.374 571.665 837.34 575.124 826.201C565.122 819.869 557.814 813.304 548.657 805.931L507.524 772.642C495.084 762.582 482.244 753.163 470.122 742.725C458.097 732.37 448.626 727.899 444.912 711.562C440.585 709.109 436.975 706.112 432.802 703.346C413.066 721.172 390.088 730.462 364.498 736.407C362.653 736.725 360.737 737.09 358.888 737.338C357.898 737.099 347.225 737.494 345.171 737.519L343.631 738.181C346.201 738.786 350.333 738.474 353.141 738.592C355.419 738.573 355.888 738.605 358.063 738.086L364.501 738.18C371.581 738.262 401.006 736.94 405.388 738.595C407.503 739.395 409.956 741.052 410.63 743.338C411.012 744.635 410.688 745.862 409.982 746.969C408.522 749.258 406.785 750.136 404.221 750.564C396.857 751.793 388.351 750.89 380.864 750.819C366.303 750.644 351.74 750.596 337.177 750.676L215.346 750.94C199.716 751.02 184.085 751.016 168.455 750.928C162.251 750.896 146.874 753.735 146.117 745.407C145.356 737.021 154.617 737.718 160.215 737.863C171.158 738.146 182.108 738.017 193.039 738C219.693 738.061 246.348 737.944 273.001 737.649C286.338 737.604 299.957 738.201 313.28 737.502C273.654 727.846 259.895 722.144 229.806 694.074C219.008 693.531 152.555 694.944 149.207 692.838C147.624 691.842 146.672 690.333 146.247 688.536C145.848 686.852 146.107 684.854 147.238 683.488C148.429 682.049 150.368 681.443 152.149 681.184C158.712 680.23 166.422 680.929 173.088 680.926C188.247 680.969 203.406 680.933 218.565 680.816C215.317 674.737 210.776 668.717 207.323 662.402C198.784 646.789 191.556 626.433 189.475 608.757C178.212 607.896 161.585 609.264 150.155 607.758C148.474 607.537 147.06 604.516 146.283 602.973C146.931 583.138 146.469 561.066 146.476 541.101L146.491 426.44C146.487 409.138 146.395 391.819 146.54 374.518C146.557 372.438 146.796 368.835 147.729 367C148.561 365.362 151.329 364.245 153.072 364.107C162.73 363.907 172.856 364.018 182.49 364.015L245.775 363.997L350.173 364.024C368.409 364.02 386.664 363.901 404.898 364.123C410.385 364.189 411.956 367.043 412.123 372.199C412.414 381.197 412.208 390.233 412.208 399.246C412.133 419.001 412.275 438.756 412.635 458.508C421.804 464.716 431.226 470.381 439.389 478.059C484.532 520.518 499.952 585.927 476.543 643.658C471.898 655.113 466.14 665.862 459.755 676.648C461.786 678.636 463.711 680.234 465.876 682.051C484.883 682.932 492.286 693.001 506.627 704.246L558.367 745.015C565.59 750.654 572.651 756.609 580.059 761.953C577.715 745.054 573.138 727.853 570.213 711.063C564.352 677.427 558.098 643.886 551.878 610.313C551.033 605.752 549.725 600.543 550.2 595.844C550.649 591.404 554.767 588.663 559.16 590.011C568.891 593.923 578.283 597.746 588.167 601.191C620.796 612.282 653.268 623.83 685.573 635.834L776.38 668.646C796.029 675.572 815.913 681.79 835.252 689.631C838.736 691.044 847.177 696.709 843.088 701.016C836.234 708.236 827.376 715.117 819.431 721.167C803.823 733.05 788.006 744.713 772.337 756.522C757.597 768.017 742.936 779.406 728.318 791.033C719.515 798.036 709.88 804.782 701.262 811.989C695.12 817.126 682.999 824.935 678.501 830.765C676.697 833.104 671.464 846.35 670.181 849.558C663.7 865.709 657.639 882.027 652.005 898.494C672.378 899.159 696.404 898.551 716.951 898.527L819.665 898.767C830.576 898.774 840.456 898.931 848.614 890.451C857.853 880.848 855.742 862.647 855.77 850.415L855.84 810.091L855.809 680.769L855.765 461.005C855.927 412.817 855.813 364.628 855.424 316.44C843.607 315.59 825.706 316.117 813.347 316.102L741.015 315.854L486.901 316.048C399.014 315.575 311.125 315.571 223.237 316.037C194.043 315.934 164.849 315.998 135.656 316.23C124.25 316.29 106.747 315.591 96.0265 316.507C95.24 353.646 95.7793 393.342 95.6941 430.621L95.8383 711.592L95.9221 841.912L95.8514 879.006C95.8527 884.522 95.4987 893.722 96.2369 898.756C101.55 900.923 157.915 899.844 168.842 899.842L294.323 899.571L435.987 899.369L520.443 899.111C529.274 899.069 549.64 899.797 557.377 898.387ZM632.192 146.923C649.038 139.581 669.547 133.902 686.998 126.964C676.413 120.399 657.023 117.015 645.219 111.471C636.589 107.419 634.14 108.185 630.223 98.1406L620.04 71.5397C617.889 65.9512 615.169 58.0636 612.017 53.1616C606.12 66.8147 601.868 81.6235 596.512 95.5495C593.846 102.479 593.654 104.652 586.055 107.487C570.08 113.447 552.815 118.672 537.187 125.344C548.79 130.752 562.744 135.04 574.766 139.791C580.475 142.047 588.115 144.178 593.232 147.419C595.173 152.498 597.382 157.518 599.496 162.535C600.916 165.903 602.305 170.406 604.01 173.503L612.64 173.156C615.594 173.187 618.933 173.319 621.847 173.084C625.25 164.573 628.471 155.185 632.192 146.923ZM450.49 698.659C453.209 696.074 456.085 693.161 459.154 691.062C457.171 689.337 454.451 687.249 451.96 686.333C449.532 688.742 446.172 691.88 444.187 694.539C445.557 695.799 448.055 698.296 449.528 699.136L450.49 698.659ZM470.524 695.112C465.958 695.767 463.39 697.022 460.595 700.83C454.648 708.932 458.233 715.772 464.591 721.834C473.218 730.059 482.741 736.694 492.023 743.991L542.355 783.97C552.024 791.497 568.26 803.222 576.645 811.037C577.934 811.873 579.161 812.711 580.505 813.457C584.329 803.292 587.866 795.507 584.026 784.825C583.135 782.345 580.37 780.312 578.474 778.508C560.226 763.221 541.271 748.657 522.825 733.621L495.242 710.961C490.038 706.665 477.048 694.296 470.524 695.112ZM899.406 55.5167C891.928 60.1587 884.411 65.7118 877.051 70.6226C867.298 77.1291 864.952 84.3171 851.556 80.9489C840.72 78.2242 829.65 75.2966 818.771 72.6332L834.43 93.5991C837.964 98.3685 844.393 105.024 844.063 111.289C843.611 119.894 833.277 145.95 834.076 152.66L834.398 152.871C840.361 148.72 846.187 144.377 851.869 139.85C860.008 133.453 867.919 124.384 879.195 127.39C890.775 130.478 903.741 132.184 915.174 135.532C908.384 126.577 896 112.482 891.033 103.1C887.636 96.6833 898.45 64.3604 899.737 55.8574L899.406 55.5167ZM634.082 896.605C638.911 884.862 644.926 870.24 649.104 858.216C637.35 853.299 624.324 849.075 612.33 844.682C605.213 842.074 596.725 838.209 589.631 836.258C587.64 841.962 575.878 871.573 575.772 875.322C588.733 880.811 602.715 885.747 616.019 890.349C621.534 892.256 628.651 895.165 634.082 896.605ZM399.865 377.662C376.246 377.216 351.385 377.578 327.662 377.563L159.082 377.52C158.218 391.088 158.735 405.243 158.604 418.876C158.329 447.454 159.302 476.3 159.204 504.821L158.778 564.945C158.732 570.775 158.17 591.129 159.306 595.889C163.164 597.506 182.556 597.094 188.447 597.231C189.718 534.313 215.053 485.824 271.588 455.563C309.107 437.364 346.307 434.495 386.276 446.705C390.709 448.059 395.405 450.445 399.714 452.245C400.731 430.436 400.122 400.057 399.865 377.662ZM576.813 645.098C583.112 648.628 596.038 652.036 603.19 654.805C631.256 665.671 659.991 675.267 688.374 685.303L757.541 710.11C765.824 713.022 783.637 719.638 791.279 721.13C796.111 717.983 800.666 714.375 805.249 710.87C808.599 708.248 813.766 704.446 816.552 701.46C809.591 697.449 785.819 689.826 776.633 686.461C741.182 673.328 705.577 660.612 669.827 648.316C659.076 644.573 648.449 640.342 637.745 636.44C624.215 631.546 610.648 626.755 597.046 622.068C589.307 619.316 577.808 614.736 570.257 612.486C570.04 619.068 574.138 638.969 576.813 645.098ZM101.627 299.508C129.246 299.793 158.325 299.411 186 299.302L314.354 299.084L831.062 298.839C837.595 298.849 846.608 299.126 853 298.743L853.023 239.498C853.035 228.66 853.561 216.917 852.179 206.229C851.088 197.795 841.294 190.312 833.134 189.872C824.119 189.594 814.967 189.708 805.924 189.708L751.766 189.771L579.039 189.73L289.523 189.557L179.249 189.542C160.323 189.536 138.386 188.994 119.677 189.61C111.639 191.447 105.264 194.715 100.755 201.987C98.7147 205.278 95.9386 211.968 96.1533 215.752C97.755 243.979 101.034 271.105 101.627 299.508ZM600.526 807.916C598.713 812.453 597.254 816.142 596.058 820.894C609.022 825.238 622.22 830.219 635.134 834.778C639.801 836.426 651.181 840.537 655.286 842.652C656.621 838.317 658.059 833.606 660.098 829.534C646.783 824.613 633.521 820.233 620.184 815.463C614.604 813.467 605.709 810.451 600.526 807.916ZM730.153 769.629C741.531 760.678 752.633 751.415 764.283 742.83C768.687 739.584 772.942 736.146 777.186 732.695C771.958 729.392 760.941 726.299 754.709 724.155L726.427 714.174C688.744 701.153 651.214 687.691 613.846 673.791C602.514 669.565 589.984 665.322 578.889 660.799C580.879 679.715 585.863 703.08 589.874 721.735C592.077 731.988 593.179 742.375 595.124 752.585C597.646 765.824 600.496 778.209 602.283 791.676C621.478 798.504 640.972 804.509 659.886 812.187C663.145 813.51 666.714 814.734 670.063 815.82C676.549 811.357 684.625 805.226 690.715 800.106C703.089 789.703 718.105 780.07 730.153 769.629ZM331.948 451.759C255.804 455.236 196.912 519.81 200.443 595.952C203.974 672.094 268.59 730.94 344.729 727.355C420.792 723.773 479.566 659.237 476.038 583.171C472.511 507.106 408.016 448.286 331.948 451.759Z"/><path fill="#2A446C" d="M720.274 529.566C744.038 527.387 765.078 544.864 767.296 568.625C769.514 592.385 752.072 613.454 728.315 615.712C704.502 617.974 683.373 600.482 681.15 576.666C678.927 552.849 696.454 531.749 720.274 529.566ZM727.245 602.638C743.918 600.891 755.989 585.916 754.155 569.253C752.322 552.589 737.285 540.596 720.631 542.515C704.098 544.42 692.211 559.325 694.031 575.867C695.851 592.409 710.694 604.373 727.245 602.638Z"/><path fill="#2A446C" d="M151.453 852.109C158.007 851.588 171.48 852.038 178.622 852.031L234.761 851.98L407.067 852.087C413.403 856.798 413.607 861.758 405.99 865.086C387.842 864.884 369.214 865.432 350.997 865.484L223.311 865.583L174.815 865.506C167.823 865.491 159.241 865.872 152.483 865.324C145.037 864.721 144.181 856.128 151.453 852.109Z"/><path fill="#2A446C" d="M151.89 794.177C171.889 793.584 193.937 794.005 214.077 794.007L323.006 793.999L380.105 794.044C388.192 794.052 397.303 793.747 405.252 794.182C411.674 794.533 412.189 803.323 405.954 807.249C379.164 806.662 350.683 807.157 323.844 807.2L211.737 806.983C203.182 806.975 154.377 808.161 149.48 806.326C148.044 805.787 146.888 804.709 146.393 803.235C145.763 801.357 146.228 799.212 147.112 797.494C148.247 795.288 149.642 794.841 151.89 794.177Z"/><path fill="#2A446C" d="M495.781 376.199C519.355 375.805 543.099 376.561 566.692 376.591C583.797 376.613 736.948 375.448 740.649 377.138C742.015 377.761 742.901 378.856 743.312 380.292C743.905 382.36 743.513 384.794 742.462 386.648C741.533 388.286 740.44 389.076 738.625 389.626L615.815 389.376C600.207 389.407 499.107 390.71 493.842 388.737C492.296 388.157 491.01 387.016 490.408 385.464C489.725 383.7 490.032 381.648 490.838 379.975C491.899 377.772 493.543 376.912 495.781 376.199Z"/><path fill="#2A446C" d="M636.066 490.244C669.455 489.964 703.315 491.25 736.753 490.507C745.963 490.303 746.084 502.54 737.633 503.578C734.799 503.926 729.298 503.521 726.194 503.52L697.067 503.517L596.75 503.296L528.367 503.278C517.993 503.269 507.513 503.213 497.145 503.257C491.016 503.256 487.091 497.978 491.808 493.051C495.46 489.236 504.059 490.62 509.182 490.639L536.511 490.582L636.066 490.244Z"/><path fill="#2A446C" d="M736.3 433.223C743.122 433.03 747.072 439.057 742.254 444.527C741.038 445.907 737.55 445.942 735.638 445.983C726.37 446.183 717.065 446.09 707.787 446.086L656.275 446.062L498.375 446.037C492.702 445.928 487.595 442.167 491.608 435.837C492.796 433.964 495.288 433.642 497.464 433.565C504.131 433.329 510.888 433.444 517.584 433.48C530.424 433.507 543.264 433.605 556.104 433.775L669.249 433.779C689.556 433.763 716.465 434.434 736.3 433.223Z"/><path fill="#2A446C" d="M495.781 548.245L595.934 548.011C613.814 548.01 631.871 547.947 649.762 548.102C650.981 548.112 652.139 548.409 653.212 549.003C654.872 549.92 656.046 551.518 656.424 553.375C657.565 558.84 653.849 560.536 649.247 560.826C617.66 561.469 583.388 560.965 551.561 560.964C541.211 560.93 530.862 560.952 520.512 561.032C512.459 561.166 498.907 562.365 491.72 560.263C489.254 559.542 485.181 549.942 495.781 548.245Z"/><path fill="#2A446C" d="M157.219 207.484C178.212 206.702 195.878 223.058 196.712 244.049C197.547 265.04 181.235 282.746 160.246 283.633C139.183 284.522 121.4 268.14 120.563 247.075C119.726 226.01 136.152 208.268 157.219 207.484ZM160.419 271.553C174.717 270.61 185.528 258.228 184.533 243.933C183.539 229.638 171.118 218.872 156.827 219.918C142.608 220.959 131.909 233.303 132.898 247.525C133.888 261.748 146.193 272.491 160.419 271.553Z"/><path fill="#2A446C" d="M338.443 208.111C351.969 205.703 365.741 210.793 374.45 221.419C383.159 232.045 385.446 246.549 380.429 259.339C375.411 272.129 363.873 281.21 350.262 283.08C329.786 285.894 310.822 271.806 307.603 251.389C304.385 230.973 318.094 211.734 338.443 208.111ZM348.259 270.924C362.152 269.11 371.967 256.41 370.221 242.508C368.474 228.607 355.822 218.73 341.913 220.409C327.907 222.1 317.947 234.858 319.706 248.855C321.464 262.852 334.271 272.75 348.259 270.924Z"/><path fill="#2A446C" d="M245.426 207.888C266.091 204.571 285.537 218.62 288.88 239.281C292.223 259.941 278.199 279.405 257.542 282.774C236.849 286.148 217.343 272.094 213.995 251.397C210.646 230.699 224.725 211.211 245.426 207.888ZM255.233 270.866C269.128 268.638 278.648 255.651 276.589 241.73C274.53 227.809 261.658 218.133 247.713 220.024C238.542 221.267 230.747 227.346 227.307 235.939C223.867 244.532 225.314 254.31 231.094 261.539C236.874 268.768 246.094 272.331 255.233 270.866Z"/><path fill="#2A446C" d="M332.055 457.616C404.75 454.338 466.36 510.567 469.72 583.258C473.08 655.95 416.92 717.622 344.232 721.064C271.429 724.511 209.637 668.242 206.272 595.435C202.907 522.629 259.245 460.9 332.055 457.616ZM336.758 714.105C405.751 714.816 462.202 659.355 462.71 590.36C463.219 521.365 407.591 465.078 338.595 464.772C269.886 464.468 213.883 519.814 213.377 588.523C212.871 657.231 268.052 713.396 336.758 714.105Z"/><path fill="#2A446C" d="M331.002 483.532C389.346 479.521 439.94 523.466 444.135 581.798C448.331 640.13 404.545 690.862 346.227 695.242C287.648 699.641 236.638 655.617 232.425 597.024C228.211 538.431 272.396 487.561 331.002 483.532ZM239.654 596.161C261.644 595.951 283.634 595.896 305.625 595.995C337.145 596.007 370.548 596.596 401.9 596.03C401.975 570.318 402.81 540.195 401.904 514.73C385.054 499.913 359.521 489.2 336.896 490.246C280.953 492.507 240.237 537.468 239.083 592.219C239.059 593.362 239.421 595.048 239.654 596.161ZM241.11 607.793C243.859 629.825 260.523 653.954 277.893 667.451C279.275 668.529 280.672 669.589 282.083 670.628C288.05 674.473 294.172 678.555 300.728 681.241C374.67 711.537 451.471 644.024 434.457 567.005C431.701 554.529 423.018 535.912 414.012 526.762C412.901 551.355 414.935 576.943 413.758 601.616C413.671 603.436 413.351 605.31 412.049 606.648C409.063 608.231 400.869 607.512 397.1 607.511L369.705 607.521L280.206 607.447C270.924 607.441 249.712 606.891 241.11 607.793Z"/><path fill="#70747F" d="M353.141 738.592C350.269 739.024 329.276 739.035 326.733 738.58C330.801 737.33 340.515 737.556 345.171 737.519L343.631 738.181C346.201 738.786 350.333 738.474 353.141 738.592Z"/><path fill="#BDB3A6" fill-opacity="0.93725491" d="M345.171 737.519C347.225 737.494 357.898 737.099 358.888 737.338L357.849 737.83L358.063 738.086C355.888 738.605 355.419 738.573 353.141 738.592C350.333 738.474 346.201 738.786 343.631 738.181L345.171 737.519Z"/><path fill="#FDFAEA" fill-opacity="0.015686275" d="M358.888 737.338C360.737 737.09 362.653 736.725 364.498 736.407L364.501 738.18L358.063 738.086L357.849 737.83L358.888 737.338Z"/><path fill="#2A446C" d="M1024 410.392L1024 446.962C1023.61 447.127 1023.22 447.291 1022.83 447.456C1015.88 459.702 1008.06 481.078 1002.14 493C997.874 496.146 987.658 499.855 982.36 501.976L947.976 515.492L948.604 515.858C958.808 521.754 996.722 532.77 1002.19 538.88C1007.45 544.769 1019.6 582.749 1024 583.979L1024 621.527C1022.78 621.043 1019.66 619.557 1019.09 618.393C1008.43 596.446 999.985 572.93 989.032 551.116C984.553 548.8 977.113 546.186 972.213 544.018C961.608 539.325 950.888 534.965 940.119 530.641C933.941 527.94 927.196 525.868 921.286 522.639C915.374 519.411 914.83 510.619 921.331 507.662C930.243 503.609 939.454 500.344 948.575 496.871L988.322 481.374C991.708 476.173 994.869 467.531 997.403 461.543C1003.59 446.926 1009.53 431.961 1016.29 417.598C1018.16 413.633 1019.93 411.68 1024 410.392Z"/><path fill="#2A446C" d="M517.276 0L534.124 0C533.211 3.13216 530.503 13.6211 529.11 16.4686C516.162 42.9349 533.495 70.4365 563.363 57.1845C566.174 55.9376 570.269 51.9327 571.969 49.1432C578.917 33.8319 583.221 16.0124 588.63 0L605.804 0C603.818 6.33401 601.985 12.8728 599.802 19.1238C592.532 39.938 590.492 61.0495 568.884 72.177C558.802 77.284 547.118 78.2271 536.347 74.8032C525.826 71.3752 517.141 63.8324 512.273 53.8946C502.887 35.1446 511.059 18.9227 517.276 0Z"/></svg>